<svg width="900" height="620" viewBox="0 0 900 620" fill="none" xmlns="http://www.w3.org/2000/svg">
  <rect width="900" height="620" rx="24" fill="#F8FAFC"/>
  <rect x="36" y="36" width="828" height="548" rx="18" fill="#FFFFFF" stroke="#E2E8F0"/>

  <rect x="70" y="74" width="220" height="22" rx="8" fill="#DBEAFE"/>
  <rect x="70" y="108" width="140" height="14" rx="7" fill="#E2E8F0"/>
  <rect x="746" y="76" width="84" height="34" rx="10" fill="#2563EB"/>

  <rect x="70" y="152" width="500" height="396" rx="14" fill="#F8FAFC" stroke="#E2E8F0"/>
  <rect x="594" y="152" width="236" height="396" rx="14" fill="#F8FAFC" stroke="#E2E8F0"/>

  <rect x="94" y="180" width="452" height="56" rx="10" fill="#FFFFFF" stroke="#E2E8F0"/>
  <circle cx="122" cy="208" r="12" fill="#BFDBFE"/>
  <rect x="146" y="194" width="170" height="10" rx="5" fill="#0F172A"/>
  <rect x="146" y="212" width="120" height="8" rx="4" fill="#64748B"/>
  <rect x="454" y="196" width="76" height="22" rx="11" fill="#FEF3C7"/>

  <rect x="94" y="248" width="452" height="56" rx="10" fill="#FFFFFF" stroke="#E2E8F0"/>
  <circle cx="122" cy="276" r="12" fill="#BFDBFE"/>
  <rect x="146" y="262" width="160" height="10" rx="5" fill="#0F172A"/>
  <rect x="146" y="280" width="110" height="8" rx="4" fill="#64748B"/>
  <rect x="454" y="264" width="76" height="22" rx="11" fill="#DBEAFE"/>

  <rect x="94" y="316" width="452" height="56" rx="10" fill="#FFFFFF" stroke="#E2E8F0"/>
  <circle cx="122" cy="344" r="12" fill="#BFDBFE"/>
  <rect x="146" y="330" width="178" height="10" rx="5" fill="#0F172A"/>
  <rect x="146" y="348" width="100" height="8" rx="4" fill="#64748B"/>
  <rect x="454" y="332" width="76" height="22" rx="11" fill="#DCFCE7"/>

  <rect x="94" y="384" width="452" height="56" rx="10" fill="#FFFFFF" stroke="#E2E8F0"/>
  <circle cx="122" cy="412" r="12" fill="#BFDBFE"/>
  <rect x="146" y="398" width="150" height="10" rx="5" fill="#0F172A"/>
  <rect x="146" y="416" width="126" height="8" rx="4" fill="#64748B"/>
  <rect x="454" y="400" width="76" height="22" rx="11" fill="#DBEAFE"/>

  <rect x="618" y="178" width="188" height="136" rx="12" fill="#FFFFFF" stroke="#E2E8F0"/>
  <rect x="638" y="202" width="120" height="10" rx="5" fill="#0F172A"/>
  <rect x="638" y="222" width="90" height="8" rx="4" fill="#64748B"/>
  <rect x="638" y="244" width="148" height="16" rx="8" fill="#EFF6FF"/>
  <rect x="638" y="268" width="120" height="16" rx="8" fill="#EFF6FF"/>

  <rect x="618" y="330" width="188" height="194" rx="12" fill="#FFFFFF" stroke="#E2E8F0"/>
  <rect x="638" y="352" width="130" height="10" rx="5" fill="#0F172A"/>
  <rect x="638" y="372" width="98" height="8" rx="4" fill="#64748B"/>

  <rect x="638" y="396" width="148" height="26" rx="13" fill="#DBEAFE"/>
  <rect x="638" y="432" width="110" height="26" rx="13" fill="#FEF3C7"/>
  <rect x="638" y="468" width="128" height="26" rx="13" fill="#DCFCE7"/>

  <rect x="70" y="536" width="174" height="20" rx="10" fill="#E2E8F0"/>
  <rect x="252" y="536" width="130" height="20" rx="10" fill="#E2E8F0"/>
</svg>
